<?xml version="1.0" encoding="UTF-8" standalone="no"?>
<svg version="1.1" xmlns="http://www.w3.org/2000/svg" xmlns:xlink="http://www.w3.org/1999/xlink" preserveAspectRatio="xMidYMid meet" viewBox="0 0 940 296" width="940" height="296"><defs><path d="M133.59 285.56C61.81 285.56 3.63 227.37 3.63 155.59C3.63 83.81 61.81 25.63 133.59 25.63C205.37 25.63 263.55 83.81 263.55 155.59C263.55 227.37 205.37 285.56 133.59 285.56Z" id="a3wcXQDlQH"></path><path d="M109.25 162.96C111.78 162.96 113.7 161.05 113.7 158.52C113.7 156.1 111.78 154.08 109.25 154.08C106.61 154.08 85.44 154.08 82.8 154.08C80.27 154.08 78.35 156 78.35 158.42C78.35 160.94 80.27 162.86 82.8 162.86C83.54 162.86 89.52 162.86 90.27 162.86C88.55 167.71 89.36 171.24 92.49 173.77C95.42 176.09 99.36 176.29 102.49 174.37C104 173.37 105.21 172.05 105.92 170.44C106.83 168.01 106.63 165.49 105.42 162.96C106.18 162.96 108.87 162.96 109.25 162.96Z" id="c1mIb8CaSJ"></path><path d="M160.45 167.1C160.45 171.85 164.29 175.69 169.04 175.69C173.98 175.69 177.92 171.55 177.72 166.5C177.42 162.16 173.58 158.52 169.04 158.52C164.19 158.52 160.45 162.36 160.45 167.1Z" id="fvLXE5JJR"></path><path d="M114.81 204.87C114.2 204.87 113.7 204.87 113.09 204.97C108.14 205.88 105.11 210.22 105.72 215.37C106.33 220.63 107.03 225.88 107.23 231.13C107.54 236.48 111.78 240.82 117.03 240.92C119.66 240.92 140.66 240.92 143.29 240.92C147.63 240.92 152.47 237.49 153.89 233.45C156.01 227.49 158.13 221.43 160.25 215.37C160.65 214.26 160.86 213.05 160.75 211.84C160.55 207.7 157.32 204.87 153.08 204.87C145.43 204.87 118.64 204.87 114.81 204.87ZM131.27 233.25C127.83 233.25 124.4 233.35 120.97 233.25C117.53 233.15 115.01 230.22 115.11 226.99C115.21 223.35 118.14 220.73 121.78 220.83C127.94 221.13 134.2 221.74 140.36 220.83C144.09 220.32 147.32 223.15 147.53 226.68C147.63 230.22 145.2 233.05 141.67 233.25C138.24 233.35 134.8 233.25 131.27 233.25Z" id="boKRZKxx1"></path><path d="M252.35 96.01C245.68 82.99 237.1 71.37 226.7 61.07C215.89 50.57 203.77 42.09 190.14 35.52C189.74 35.32 189.43 35.02 189.23 34.61C185.9 27.95 181.66 22.09 176.21 17.04C161.16 3.31 143.39 -2.35 123.19 0.89C102.39 4.32 87.14 15.93 77.34 34.61C77.04 35.22 76.54 35.62 76.03 35.93C61.49 42.9 48.66 52.19 37.46 63.8C27.66 74 19.68 85.31 13.52 98.03C5.24 114.9 0.9 132.77 0.09 151.45C-0.31 162.56 0.6 173.67 3.02 184.57C8.98 211.54 22.01 234.46 42 253.44C52.3 263.24 63.81 271.12 76.64 277.18C101.48 288.79 127.63 292.32 155.2 288.18C161.36 287.27 167.42 285.76 173.38 283.84C208.72 272.13 234.98 249.91 252.04 217.19C261.94 198.21 266.69 177.91 266.69 156.5C266.69 156.18 266.69 153.59 266.69 153.27C266.69 147.21 266.18 141.35 265.17 135.5C262.95 121.66 258.71 108.53 252.35 96.01ZM209.73 188.31C204.78 193.46 199.73 198.51 194.79 203.66C192.56 205.98 191.25 209.21 191.15 212.45C191.05 217.49 191.15 222.54 191.15 227.59C191.15 230.52 193.37 232.74 196.3 232.74C199.37 232.74 223.93 232.74 227 232.74C217 244.86 205.29 254.66 191.66 262.23C178.02 269.8 163.48 274.55 148.03 276.37C99.96 282.22 60.78 259.1 39.88 232.74C42.9 232.74 67.05 232.74 70.07 232.74C73.2 232.74 75.43 230.62 75.43 227.49C75.43 222.75 75.53 218 75.43 213.25C75.43 209.31 73.81 205.58 71.08 202.85C65.02 196.69 58.97 190.53 53.01 184.27C47.25 178.41 41.6 172.56 35.84 166.7C34.22 165.08 32.91 163.37 33.52 160.44C33.72 159.43 34.33 158.42 35.03 157.61C39.27 152.66 43.41 147.72 47.76 142.87C52 138.12 56.54 133.78 61.59 129.94C71.89 122.27 83.1 116.51 95.32 112.37C95.72 112.27 96.03 112.37 96.43 112.57C104.61 118.63 113.7 122.47 123.8 123.98C140.86 126.51 156.41 122.67 170.35 112.67C170.85 112.37 171.16 112.27 171.76 112.47C183.68 116.51 194.68 122.17 204.78 129.64C207.81 131.86 210.54 134.39 213.27 136.91C220.03 143.37 226.19 150.54 232.05 157.81C233.87 160.34 233.66 163.87 231.44 166.09C224.17 173.47 217 180.94 209.73 188.31Z" id="a29l2uL1wU"></path><path d="M157.62 152.36C155.2 152.36 153.18 150.34 153.18 147.92C153.18 145.49 155.2 143.47 157.62 143.47C160.28 143.47 181.53 143.47 184.18 143.47C186.61 143.47 188.63 145.49 188.63 147.92C188.63 150.34 186.61 152.36 184.18 152.36C178.87 152.36 160.28 152.36 157.62 152.36Z" id="b2r7jOzeEG"></path><path d="M719.59 40.37C719.29 40.37 719.08 40.17 718.78 39.97C718.5 39.97 716.24 39.97 715.95 39.97C715.45 40.07 714.94 40.27 714.44 40.37C708.68 41.18 704.95 44.41 703.43 50.06C702.73 52.69 702.52 55.42 702.42 58.14C702.32 103.89 702.42 149.63 702.42 195.38C702.42 197.5 702.52 199.62 702.93 201.64C704.14 208.91 709.09 213.15 716.46 213.35C724.74 213.56 729.79 209.92 731.4 202.35C731.91 199.82 732.01 197.3 732.01 194.67C732.01 181.12 732.01 72.71 732.01 59.15C732.01 57.23 731.91 55.42 731.81 53.5C731.1 45.92 727.06 41.68 719.59 40.37Z" id="eAMqXevO"></path><path d="M838.34 115.91C838.34 111.77 838.24 107.63 837.74 103.59C836.43 91.47 830.47 82.78 818.65 79.05C805.83 75.01 792.8 74.3 779.77 77.63C762.91 81.98 753.12 94.4 753.22 110.65C753.22 115 755.14 118.23 758.87 120.35C763.21 122.87 767.96 123.38 772.91 122.37C779.37 121.06 782 118.13 783.11 111.66C783.51 109.14 784.12 106.62 785.13 104.29C787.45 99.04 792.09 97.83 797.24 97.83C801.89 97.83 805.32 99.95 807.34 104.09C810.37 110.25 808.76 117.42 803.51 121.86C801.99 123.18 800.17 124.19 798.46 125.1C789.67 129.74 780.78 134.28 772.1 139.03C763.42 143.68 756.85 150.34 754.13 160.04C751.2 170.54 750.79 181.24 753.52 191.84C756.04 202.04 762.2 209.42 772.71 212.04C776.75 213.05 781.19 213.46 785.43 213.15C795.73 212.45 803.81 207.7 808.66 198.31C808.86 197.9 809.16 197.5 809.36 197.1C809.46 197.1 809.67 197.2 809.77 197.2C809.77 197.9 809.87 198.51 809.87 199.22C810.47 207.09 814.71 212.04 822.19 213.05C824.51 213.35 826.83 213.35 829.16 213.05C837.74 211.84 840.97 206.99 839.96 198.31C839.15 191.64 838.55 184.88 838.45 178.11C838.24 157.41 838.34 136.61 838.34 115.91ZM803.61 184.27C800.78 188.92 795.43 191.04 790.98 189.83C785.83 188.41 784.02 184.37 783.21 179.73C781.39 169.12 783.81 159.93 793.1 153.47C798.15 149.94 803.2 146.2 808.15 142.57C808.55 142.77 808.66 142.87 809.06 143.07C808.76 153.37 808.66 163.77 807.75 174.07C807.44 177.61 805.53 181.14 803.61 184.27Z" id="blzgTq7Z7"></path><path d="M912.57 86.52C912.36 87.33 912.16 88.14 911.96 89.04C910.75 96.28 901.05 154.21 899.84 161.45C899.24 164.98 898.63 168.42 898.02 171.95C897.98 171.95 897.66 171.95 897.62 171.95C897.42 171.04 897.22 170.03 897.02 169.12C895.47 160.85 883.11 94.69 881.56 86.42C880.55 80.86 877.12 77.33 871.57 76.42C868.84 76.02 865.91 75.92 863.19 76.42C856.12 77.73 852.38 82.88 852.99 90.05C853.19 92.48 853.59 94.8 854.2 97.12C863.29 135.5 872.38 173.77 881.36 212.14C881.97 214.87 882.07 217.7 882.07 220.42C881.97 223.76 880.15 225.47 876.82 225.98C875.4 226.18 873.89 226.28 872.38 226.48C869.24 226.99 866.22 227.69 864.3 230.52C859.85 236.78 863.69 247.28 871.16 248.29C876.52 249 881.97 248.5 887.42 247.99C895.9 247.08 901.76 242.34 904.89 234.46C906.51 230.32 908.02 226.18 909.03 221.84C916.71 189.42 924.28 157.01 931.95 124.49C934.58 113.18 937.21 101.97 939.63 90.66C941.04 84.6 938.32 79.45 933.07 77.13C924.08 73.09 915.29 77.13 912.57 86.52Z" id="bFDgwzaoK"></path><path d="M347.57 78.14C337.27 80.86 329.9 87.13 326.16 97.22C325.05 100.15 324.14 103.18 323.74 106.21C323.64 107.12 323.44 108.13 323.34 109.04C322.23 117.62 321.82 126.31 321.82 135.09C321.82 137.31 321.82 155.09 321.82 157.31C321.82 159.43 321.92 164.48 321.92 166.6C322.02 170.13 322.12 172.76 322.12 173.57C322.53 180.23 323.03 181.44 324.04 186.49C326.97 200.63 335.35 208.71 349.69 211.84C357.77 213.56 365.85 214.06 374.03 213.15C395.64 210.63 408.97 194.17 407.15 172.56C406.65 166.5 403.52 162.66 397.86 161.55C395.44 161.05 392.91 160.84 390.39 161.05C384.43 161.45 379.28 165.89 378.27 171.75C377.77 174.37 377.77 177.1 377.26 179.73C375.95 186.49 370.9 190.73 364.84 190.23C359.59 189.83 355.75 186.39 354.54 180.13C353.53 174.78 353.33 169.22 353.02 163.67C352.82 158.82 353.02 153.88 353.02 148.83C353.33 148.83 355.75 148.83 356.05 148.83C368.78 148.83 381.6 148.93 394.33 148.73C402.2 148.62 406.75 144.58 407.66 136.81C409.17 124.09 408.56 111.46 404.53 99.24C400.59 86.72 392.1 79.35 379.48 76.93C368.78 74.91 358.07 75.31 347.57 78.14ZM353.02 127.62C353.33 120.75 352.12 113.89 354.44 107.32C356.36 101.77 360.3 99.04 366.05 99.14C371.71 99.24 375.64 101.97 377.36 107.52C378.07 109.85 378.57 112.27 378.67 114.59C378.88 118.73 378.67 122.97 378.67 127.62C373.54 127.62 355.59 127.62 353.02 127.62Z" id="b7mzPGGVrz"></path><path d="M467.03 99.14C472.28 99.65 475.82 102.68 476.83 107.93C477.43 110.86 477.33 113.99 477.74 116.92C478.24 120.45 479.56 123.68 482.48 125.9C491.77 132.77 505.2 127.22 506.62 115.8C508.74 99.34 499.15 83.79 483.49 78.54C472.79 74.91 461.88 75.11 450.98 77.33C437.45 80.16 428.76 88.54 425.53 101.87C423.91 108.43 422.9 115.2 422.7 121.86C422.3 135.8 422.3 149.74 422.6 163.67C422.8 171.04 423.51 178.41 425.02 185.58C427.85 199.32 436.13 208.41 450.07 211.74C458.15 213.66 466.43 213.96 474.61 212.75C481.57 211.74 488.04 209.21 493.39 204.57C501.67 197.4 505.41 188.01 506.52 177.3C507.02 172.36 507.02 167.31 504.7 162.66C501.97 157.21 496.92 154.78 489.86 155.39C484.3 155.9 480.67 158.82 478.95 164.68C478.24 167 477.94 169.53 477.54 171.95C477.03 175.59 476.93 179.22 476.02 182.76C475.01 187 471.88 189.42 467.44 189.83C462.39 190.33 458.85 188.71 456.94 184.27C455.62 181.14 454.51 177.61 454.21 174.27C453.5 164.07 453.3 147.41 453.3 143.47C453.3 137.11 453.2 130.75 453.3 124.29C453.8 118.23 453.8 111.97 456.13 106.11C458.15 101.06 461.98 98.64 467.03 99.14Z" id="et7c7hIpf"></path><path d="M656.88 76.32C644.06 73.9 631.13 80.26 624.77 91.67C624.46 92.17 624.16 92.78 623.66 93.69C623.35 91.57 623.25 89.85 622.95 88.24C621.74 80.46 616.69 76.02 609.01 75.82C601.24 75.61 596.09 79.65 594.47 87.43C594.07 89.55 593.87 91.77 593.87 93.89C593.87 139.54 593.77 185.28 593.87 230.93C593.87 234.16 594.47 237.49 595.48 240.52C597.4 246.07 602.15 248.9 608.71 248.9C615.17 248.9 620.02 246.07 621.84 240.42C622.85 237.39 623.35 234.06 623.35 230.82C623.56 220.93 623.45 211.03 623.45 201.14C623.45 200.99 623.45 200.25 623.45 198.91L623.96 198.91C624.26 199.22 624.43 199.39 624.46 199.42C629.21 207.5 636.38 212.04 645.57 213.05C659.3 214.67 670.61 210.22 676.57 196.59C679.7 189.32 681.22 181.65 681.32 173.87C681.52 154.38 681.62 134.79 681.32 115.3C681.22 107.22 679.6 99.24 676.17 91.77C672.53 83.79 666.57 78.14 656.88 76.32ZM647.69 183.36C644.36 192.75 633.25 191.14 629.31 185.99C626.38 182.15 625.07 177.71 624.46 173.06C623.86 168.62 623.45 164.07 623.56 159.63C623.56 147.01 623.66 134.49 624.06 121.86C624.16 116.71 625.37 111.66 627.8 107.02C630.02 102.78 633.35 100.25 638.4 100.35C642.64 100.46 646.07 102.17 647.29 106.21C648.6 110.65 649.71 115.2 650.01 119.84C650.62 127.82 650.62 135.8 650.82 144.18C650.52 153.07 650.52 162.46 650.01 171.75C649.81 175.69 648.9 179.63 647.69 183.36Z" id="cgLpcttq9"></path><path d="M530.65 144.58C530.65 155.39 539.54 164.28 550.44 164.28C561.35 164.28 570.24 155.49 570.24 144.58C570.24 133.88 561.35 124.89 550.55 124.79C539.74 124.69 530.55 133.78 530.65 144.58Z" id="d2WrlV15A3"></path></defs><g><g><g><use xlink:href="#a3wcXQDlQH" opacity="1" fill="#ffffff" fill-opacity="1"></use><g><use xlink:href="#a3wcXQDlQH" opacity="1" fill-opacity="0" stroke="#000000" stroke-width="1" stroke-opacity="0"></use></g></g><g><use xlink:href="#c1mIb8CaSJ" opacity="1" fill="#000000" fill-opacity="1"></use><g><use xlink:href="#c1mIb8CaSJ" opacity="1" fill-opacity="0" stroke="#000000" stroke-width="1" stroke-opacity="0"></use></g></g><g><use xlink:href="#fvLXE5JJR" opacity="1" fill="#000000" fill-opacity="1"></use><g><use xlink:href="#fvLXE5JJR" opacity="1" fill-opacity="0" stroke="#000000" stroke-width="1" stroke-opacity="0"></use></g></g><g><use xlink:href="#boKRZKxx1" opacity="1" fill="#000000" fill-opacity="1"></use><g><use xlink:href="#boKRZKxx1" opacity="1" fill-opacity="0" stroke="#000000" stroke-width="1" stroke-opacity="0"></use></g></g><g><use xlink:href="#a29l2uL1wU" opacity="1" fill="#000000" fill-opacity="1"></use><g><use xlink:href="#a29l2uL1wU" opacity="1" fill-opacity="0" stroke="#000000" stroke-width="1" stroke-opacity="0"></use></g></g><g><use xlink:href="#b2r7jOzeEG" opacity="1" fill="#000000" fill-opacity="1"></use><g><use xlink:href="#b2r7jOzeEG" opacity="1" fill-opacity="0" stroke="#000000" stroke-width="1" stroke-opacity="0"></use></g></g><g><use xlink:href="#eAMqXevO" opacity="1" fill="#000000" fill-opacity="1"></use><g><use xlink:href="#eAMqXevO" opacity="1" fill-opacity="0" stroke="#000000" stroke-width="1" stroke-opacity="0"></use></g></g><g><use xlink:href="#blzgTq7Z7" opacity="1" fill="#000000" fill-opacity="1"></use><g><use xlink:href="#blzgTq7Z7" opacity="1" fill-opacity="0" stroke="#000000" stroke-width="1" stroke-opacity="0"></use></g></g><g><use xlink:href="#bFDgwzaoK" opacity="1" fill="#000000" fill-opacity="1"></use><g><use xlink:href="#bFDgwzaoK" opacity="1" fill-opacity="0" stroke="#000000" stroke-width="1" stroke-opacity="0"></use></g></g><g><use xlink:href="#b7mzPGGVrz" opacity="1" fill="#000000" fill-opacity="1"></use><g><use xlink:href="#b7mzPGGVrz" opacity="1" fill-opacity="0" stroke="#000000" stroke-width="1" stroke-opacity="0"></use></g></g><g><use xlink:href="#et7c7hIpf" opacity="1" fill="#000000" fill-opacity="1"></use><g><use xlink:href="#et7c7hIpf" opacity="1" fill-opacity="0" stroke="#000000" stroke-width="1" stroke-opacity="0"></use></g></g><g><use xlink:href="#cgLpcttq9" opacity="1" fill="#000000" fill-opacity="1"></use><g><use xlink:href="#cgLpcttq9" opacity="1" fill-opacity="0" stroke="#000000" stroke-width="1" stroke-opacity="0"></use></g></g><g><use xlink:href="#d2WrlV15A3" opacity="1" fill="#000000" fill-opacity="1"></use><g><use xlink:href="#d2WrlV15A3" opacity="1" fill-opacity="0" stroke="#000000" stroke-width="1" stroke-opacity="0"></use></g></g></g></g></svg>